<svg viewBox="0 0 1440 464" fill="none" xmlns="http://www.w3.org/2000/svg">
<rect opacity="0.2" width="1440" height="464" fill="url(#paint0_linear)"/>
<g opacity="0.015">
<path d="M316.019 88V186.106C316.019 222.124 286.744 251.482 250.828 251.482H218.191C182.275 251.482 153 222.124 153 186.106V88H185.637V186.106C185.637 204.115 200.233 218.835 218.191 218.835H250.828C268.786 218.835 283.464 204.197 283.464 186.106V88H316.019Z" fill="#E71D28"/>
<path d="M316.019 284.364C316.019 324.971 283.153 358 242.664 358H226.354C185.948 358 153 324.971 153 284.364H185.62C185.62 306.932 203.897 325.3 226.354 325.3H242.664C265.122 325.3 283.399 306.932 283.399 284.364H316.019Z" fill="#E71D28"/>
</g>
<defs>
<linearGradient id="paint0_linear" x1="720" y1="0" x2="720" y2="464" gradientUnits="userSpaceOnUse">
<stop stop-color="#E8E9FD"/>
<stop offset="1" stop-color="#F1F2FF"/>
</linearGradient>
</defs>
</svg>