<svg width="24" height="24" viewBox="0 0 24 24" fill="none" xmlns="http://www.w3.org/2000/svg">
<mask id="mask0" mask-type="alpha" maskUnits="userSpaceOnUse" x="0" y="0" width="24" height="24">
<path d="M24 12C24 18.6274 18.6269 24 12 24C5.37306 24 0 18.6274 0 12C0 5.37259 5.37306 0 12 0C18.6269 0 24 5.37259 24 12Z" fill="white"/>
</mask>
<g mask="url(#mask0)">
<path d="M11.9256 4.21729C12.369 4.46681 12.7808 4.76839 13.1524 5.1156L13.0161 5.25171C12.3358 5.17871 11.6183 5.26903 10.9715 5.27893C10.8996 5.20717 10.7546 5.09704 10.8897 5.00671L11.9256 4.21729ZM23.9703 12.6659C23.9789 12.9728 24.0087 13.2363 23.8885 13.5506C22.6493 13.9045 21.8265 12.5892 20.6196 12.7872L20.7559 13.4689C21.8711 13.5061 22.57 14.5751 23.7299 14.5293C23.5651 14.856 23.803 15.7184 23.0756 15.3732C22.3222 15.1926 21.777 14.5293 20.9504 14.5293C20.8513 14.7125 20.9145 14.9649 20.8971 15.1814C21.7646 15.3175 22.3953 16.0538 23.2664 16.1899C23.1846 16.4881 23.1028 16.8234 22.8575 17.0053C22.1487 16.8333 21.5948 16.1973 20.8401 16.2158L20.7014 16.8419C21.4188 16.8605 21.8823 17.494 22.5266 17.6846C22.544 17.9481 22.3073 18.1795 22.171 18.4208C21.5998 18.2488 21.1636 17.7576 20.5093 17.7935C20.5006 17.546 20.6468 17.2688 20.5911 17.0053C19.8563 17.2243 19.3643 16.5425 18.8203 16.1391C18.8042 14.8016 17.3941 13.9243 17.3197 12.6746C17.3059 12.4 17.3529 12.1259 17.4573 11.8715C17.9207 10.8012 17.7757 9.41291 17.2677 8.41561C17.0923 8.1583 16.8583 7.94626 16.5849 7.79693C16.9566 8.58636 17.4126 9.51932 17.1846 10.4894C17.1586 11.2392 16.7162 11.9581 16.7113 12.6807C16.7074 12.9524 16.7772 13.2201 16.9133 13.4553C17.5031 14.5182 18.5663 15.5242 18.1673 16.8568C18.057 17.2664 17.7299 17.5819 17.6481 17.9989C18.3395 18.5705 18.9926 19.2152 19.9095 19.2511C20.2367 19.0432 20.0545 18.1176 20.7274 18.5445L21.7088 19.0395C21.6369 19.3018 21.4176 19.5344 21.2131 19.7175C20.8414 19.5369 20.4771 19.3204 20.0124 19.3377C19.9376 19.4019 19.877 19.4809 19.8343 19.5697C19.7917 19.6585 19.7679 19.7552 19.7646 19.8536C20.0895 19.9115 20.3971 20.0422 20.6642 20.236C20.5403 20.5082 20.2924 20.679 20.0632 20.8881L19.3024 20.6159C19.1784 20.7977 18.9108 20.9871 19.0037 21.1875C19.1835 21.2571 19.349 21.359 19.4919 21.4882C19.1561 21.8507 18.7311 22.0846 18.3209 22.3296C17.9678 21.1776 16.8042 20.3696 16.9046 19.0382L16.8501 18.9838C16.5774 19.2907 16.6679 19.7819 16.6853 20.1803C17.0136 21.0143 17.7931 21.6589 17.912 22.5746C17.7757 22.8097 17.4672 22.8567 17.2305 22.9569C17.2577 21.3063 14.7522 20.0553 16.3631 18.3862C16.8984 17.5683 17.7968 16.7887 17.4783 15.664C17.1524 14.5776 15.9913 13.9057 16.0062 12.6869V12.5917C16.2689 11.3221 17.0682 9.97095 16.4151 8.61977C16.2317 8.07534 15.8253 7.4579 15.2714 7.23147C15.6984 7.74601 15.9854 8.36183 16.1046 9.01943C16.2237 9.67704 16.1711 10.3542 15.9517 10.9856C15.7138 11.4917 15.3854 12.093 15.3532 12.6869C15.3294 13.0102 15.4169 13.3319 15.601 13.5989C16.228 14.6147 17.3172 15.7308 16.6915 17.0548C15.9827 18.1152 14.7472 19.1954 15.4374 20.5911C15.9331 21.4263 16.7088 22.2591 16.5006 23.2848L15.684 23.5558C16.228 21.6429 13.5576 20.5193 14.6753 18.6064C15.3656 17.5819 16.601 16.6266 15.9021 15.2656C15.4845 14.4229 14.6208 13.9243 14.6481 12.8713L14.6778 12.6944C14.9591 11.2009 16.0954 9.78783 15.2974 8.19041C15.0619 7.6846 14.6827 7.25906 14.2069 6.96667L14.1797 6.99513C14.6341 7.45442 14.9435 8.03681 15.0695 8.67007C15.1955 9.30333 15.1326 9.95959 14.8885 10.5575C14.6555 11.2541 14.145 11.9482 14.0397 12.6944C13.983 13.0729 14.0518 13.4596 14.2354 13.7956C14.8253 14.7298 15.8612 15.7197 15.2156 16.9261C14.5353 17.9234 13.399 18.8935 13.8525 20.189C14.3482 21.3236 15.3953 22.4038 14.8327 23.8094L13.9888 24C14.6605 22.629 13.653 21.2692 13.0632 20.0813C12.3457 18.3763 14.606 17.5596 14.6419 15.9981C14.6332 14.9921 13.5626 14.4205 13.3358 13.4962C12.8724 13.1052 12.3916 13.6508 11.8377 13.5494C11.4275 13.6323 10.7993 12.9876 10.5551 13.6855C10.2639 14.71 8.94424 15.4635 9.52169 16.6786C10.0756 17.7576 11.4089 18.547 10.9641 19.944C10.5651 21.2494 9.24659 22.4917 10.0644 23.9975C9.72863 23.8886 9.10161 24.0965 9.11029 23.5607C8.59356 21.7381 10.8005 20.6765 10.119 18.8588C9.80173 17.7452 8.35564 17.1265 8.6741 15.7852C8.90954 14.6803 10.1512 13.907 9.97646 12.6919C9.96145 12.5855 9.93656 12.4807 9.90211 12.3788C9.43866 11.0734 8.49319 9.76679 9.057 8.24238C9.2119 7.80683 9.52045 7.43563 9.79182 7.0471C8.89343 7.52719 8.43866 8.54305 8.45725 9.57624C8.41884 10.701 9.25031 11.6636 9.36803 12.6919C9.42359 13.1458 9.31314 13.6046 9.057 13.9837C8.46716 14.783 7.69393 15.6256 8.04957 16.6774C8.38538 17.739 9.71128 18.3824 9.62949 19.6161C9.62082 21.0761 7.92193 21.9844 8.40396 23.6177L7.56629 23.317C7.23172 21.8668 8.77447 21.1244 8.79306 19.7831C9.01115 18.2389 7.03965 17.666 7.15861 16.1626C7.14994 15.0193 8.15737 14.2955 8.60223 13.3341C8.67365 13.1189 8.70474 12.8924 8.69393 12.6659C8.63941 11.603 7.6803 10.7728 7.83891 9.57253C7.87699 8.71938 8.20326 7.90425 8.76456 7.25992C7.97522 7.57669 7.64932 8.4849 7.43123 9.23968C7.05205 10.4622 7.95539 11.5609 8.05081 12.656C8.09046 13.1386 7.9715 13.6199 7.51673 14.1111C6.86245 14.8807 6.19827 15.8521 6.67162 16.8865C7.16729 18.0286 8.74349 18.917 8.06196 20.3412C7.69021 21.2395 6.79926 21.9188 6.83519 22.9804C6.58807 22.8928 6.35763 22.7639 6.15366 22.5993C6.15366 21.2494 8.07931 20.4055 7.16233 18.9813C7.08055 19.2622 7.0632 19.6445 7 19.9613C6.68154 20.7866 6 21.4461 5.74597 22.3011C5.2825 22.0984 4.86513 21.8037 4.51921 21.435L5.01487 21.1343C4.93902 20.95 4.82838 20.782 4.68897 20.6394C4.37051 20.5948 4.16109 20.8039 3.89839 20.8868C3.66699 20.7013 3.45635 20.4914 3.27014 20.2607C3.43371 19.7967 4.70756 20.1803 4.06196 19.4181C3.62701 19.1459 3.19455 19.5344 2.80793 19.7163L2.2912 19.0642C2.73606 18.792 3.17968 18.4109 3.73358 18.5198C3.86989 18.7673 3.8798 19.1261 4.1425 19.2535C5.07807 19.2362 5.74102 18.5297 6.45849 17.9754C5.96282 17.2329 5.55143 16.2072 5.99504 15.3089C6.35068 14.4093 7.27881 13.6508 7.32094 12.656C7.33 12.4096 7.28781 12.1639 7.19703 11.9346C6.70136 10.6738 6.53284 8.96499 7.4684 7.85138C6.96035 7.98749 6.66047 8.62101 6.48699 9.10233C5.92441 10.3397 6.63569 11.4731 6.66047 12.6535C6.66595 12.8686 6.6443 13.0835 6.59604 13.2932C6.114 14.2633 5.33333 15.1146 5.20694 16.2307C4.65304 16.5833 4.19827 17.2008 3.40768 16.9929C3.39644 17.2515 3.43342 17.51 3.51673 17.7551C2.88972 17.7291 2.46344 18.1894 1.93556 18.4072C1.65551 18.3169 1.5824 17.9543 1.47336 17.7007C2.09294 17.4928 2.53532 16.8754 3.24411 16.8853C3.3259 16.6576 3.19827 16.4485 3.16233 16.2307C2.28005 15.8397 0.883519 18.1622 0.765799 16.149C1.64684 16.0946 2.20942 15.2829 3.08178 15.1963L3.10781 14.5442C2.11648 14.4452 1.48079 15.4611 0.491946 15.3608L0.272614 14.4947C1.4176 14.5652 2.10037 13.5419 3.18959 13.4863C3.33457 13.2957 3.35192 13.0148 3.38042 12.7525C2.19083 12.5978 1.37423 13.9144 0.110285 13.5147C0.110285 13.5147 0.0669143 12.9666 0.0433703 12.6572C0.0346962 12.5335 0.0260222 12.4518 0.0260222 12.4518C1.15242 12.8886 2.1425 12.0806 3.10533 11.6636C3.35316 11.5906 3.73234 11.7181 3.84263 11.4459C3.83271 11.2368 4.21437 10.993 3.89715 10.8482C2.48823 10.6564 1.55266 12.3528 0.107806 11.582L0 11.3642C0.291202 7.27354 2.60966 3.31155 6.45105 1.36149C8.0062 0.473074 9.93928 0.0202046 11.8885 0.000407026C14.2429 -0.0181532 16.6183 0.598046 18.3866 1.84777C20.1041 2.89951 21.746 4.63304 22.6369 6.39254C23.4895 7.93428 23.8761 9.66409 24 11.5053C22.513 12.63 21.5105 10.4461 19.9926 10.9348C20.0744 11.1712 20.1165 11.4162 20.2937 11.6154C21.6382 11.6055 22.5638 13.0111 23.9715 12.458V12.6622L23.9703 12.6659ZM6.85626 7.61752C5.91202 6.99884 4.71375 7.58163 3.83395 7.91819C3.75217 7.09288 3.41636 6.34058 2.71871 5.79614C2.64347 5.74474 2.55949 5.70743 2.47088 5.68602C2.44255 5.68423 2.41434 5.69108 2.39 5.70567C2.36565 5.72025 2.34632 5.74188 2.33457 5.76768C2.6518 7.71774 1.3829 9.07759 0.483271 10.5562C0.783147 10.8037 1.26394 10.7641 1.62701 10.6923C2.57993 10.3125 3.48575 9.64924 4.62453 9.87691C4.95911 9.30526 5.52416 8.75217 5.98761 8.29806C6.27014 8.05059 6.65799 7.8984 6.85502 7.61752H6.85626ZM9.74473 8.84249C9.72739 8.96004 9.75465 9.16915 9.93556 9.08996C10.2181 8.69896 10.7162 9.0083 11.026 9.03552V8.9254C10.8563 8.6606 10.5081 8.52697 10.1586 8.54058C10.0751 8.54334 9.99205 8.55453 9.91078 8.57399C9.88138 8.57933 9.85344 8.59082 9.8288 8.6077C9.80416 8.62459 9.78337 8.64649 9.76781 8.67196C9.75224 8.69744 9.74225 8.72591 9.73849 8.75551C9.73473 8.78512 9.73728 8.81518 9.74597 8.84373L9.74473 8.84249ZM14.1859 7.67444C13.938 7.11144 13.3519 6.88377 12.8228 6.74766C12.5597 6.7147 12.2949 6.69611 12.0297 6.69198C11.9802 6.69198 11.9294 6.69198 11.8798 6.69198C11.1363 6.70683 10.4238 6.89862 9.99009 7.50987C9.92689 7.6831 9.65304 7.92562 9.9083 8.08029C10.4796 8.04317 11.1326 7.9714 11.5192 8.46263C11.5192 8.89817 11.8017 9.47849 11.3296 9.68636C10.938 9.32506 10.4746 9.84103 10.0496 9.55025C9.84882 9.42652 9.72243 9.57005 9.64065 9.74204C9.59115 10.3322 9.70702 10.9245 9.97532 11.4526C10.2436 11.9808 10.6537 12.424 11.1599 12.7327C11.5874 12.8861 12.1611 13.0334 12.6059 12.8144C13.6778 12.3194 14.1214 11.1749 14.3222 10.1219C14.2949 9.92146 14.3048 9.5317 14.0235 9.5218C13.7051 9.72348 13.2416 9.6047 12.9083 9.5218C12.7088 9.58614 12.7001 9.87692 12.4734 9.9326L12.3346 9.82247C12.2169 9.32753 12.1437 8.61729 12.6072 8.27207C13.1252 8.06296 13.7336 7.97264 14.2701 8.13597C14.3705 7.96398 14.2156 7.82787 14.1871 7.67444H14.1859ZM13.6382 8.56904C13.6022 8.56904 13.5675 8.56904 13.5316 8.56904C13.342 8.69277 12.7881 8.60368 12.9876 9.03057C13.3321 8.75835 13.8141 8.9489 14.1586 9.08501C14.2825 9.02067 14.259 8.89446 14.2677 8.78434C14.1574 8.58265 13.8934 8.56285 13.6382 8.56904ZM17.5923 4.73326C16.9207 4.69862 16.3532 5.07972 15.7398 5.25171C15.6865 4.72707 16.0855 4.17274 16.176 3.64316C15.1772 3.7075 14.3866 4.30761 13.5601 4.7877C13.3693 4.32617 13.1772 3.86217 12.9876 3.3994L14.0768 2.36498L14.1053 2.22887L12.6332 2.1472C12.3792 1.703 12.28 1.16846 11.9802 0.760138C11.7323 1.22291 11.57 1.7129 11.3247 2.17443L9.85502 2.25609V2.36498L10.9703 3.37094C10.834 3.88815 10.7076 4.44991 10.3717 4.84091C9.71747 4.44991 9.07311 4.02426 8.35564 3.75328C8.18339 3.6976 7.93804 3.60727 7.78315 3.72482C8.00991 4.21976 8.32714 4.76048 8.27881 5.30492C7.97893 5.25047 7.7435 5.05745 7.46221 4.97702C7.12516 4.88546 6.72491 4.70604 6.39777 4.81493C6.943 5.57713 7.3891 6.37398 7.54151 7.28962C9.35068 6.42348 11.4585 5.93968 13.6481 6.31088C14.6741 6.47421 15.6171 6.8912 16.5353 7.23518C16.5713 6.275 17.1797 5.50289 17.5973 4.73079L17.5923 4.73326ZM20.7014 9.95858C21.627 10.206 22.5601 11.2108 23.5366 10.5562C22.6828 9.14193 21.4114 7.83405 21.7658 5.98546C21.7745 5.957 21.7772 5.92704 21.7736 5.8975C21.77 5.86797 21.7602 5.83951 21.7449 5.81398C21.7296 5.78844 21.7091 5.7664 21.6847 5.74926C21.6604 5.73212 21.6327 5.72027 21.6035 5.71448C21.0496 5.93967 20.6196 6.48534 20.4015 7.01988C20.3308 7.34274 20.2401 7.66093 20.1301 7.97264C19.4672 7.62742 18.7596 7.29333 17.9504 7.37376C17.6592 7.41088 17.2416 7.42944 17.1884 7.72888C18.1053 8.21763 18.86 9.03428 19.4188 9.90414C19.8459 9.85956 20.2772 9.8779 20.6989 9.95858H20.7014ZM10.9988 11.2368L11.0248 11.4013C11.3804 11.6364 11.4895 12.0373 11.9814 12.0002C12.4164 12.0262 12.7435 11.6191 12.9603 11.2924C12.3705 11.2108 11.653 11.337 10.9988 11.2368ZM11.4944 10.503C11.513 10.5748 11.4498 10.6837 11.5489 10.7208C11.8401 10.6577 12.3656 10.8755 12.5279 10.5302C12.4628 10.4666 12.385 10.4173 12.2996 10.3856C12.2142 10.3538 12.1232 10.3403 12.0322 10.3459C11.8399 10.3446 11.6513 10.3992 11.4895 10.503H11.4944Z" fill="#007042"/>
</g>
</svg>
