<svg width="168" height="88" viewBox="0 0 168 88" fill="none" xmlns="http://www.w3.org/2000/svg">
<g filter="url(#filter0_d)">
<rect x="20" y="14" width="128" height="48" rx="8" fill="white"/>
</g>
<path d="M49.3269 37.0192C49.2995 33.9264 51.8122 32.4217 51.9271 32.3516C50.5041 30.2376 48.2984 29.9487 47.5233 29.9257C45.6709 29.727 43.8739 31.0552 42.9303 31.0552C41.9678 31.0552 40.5146 29.9449 38.9484 29.9775C36.933 30.0092 35.0475 31.1982 34.0134 33.0445C31.8794 36.8091 33.471 42.3413 35.5156 45.3843C36.5384 46.8756 37.7335 48.5386 39.2978 48.48C40.8282 48.4167 41.3999 47.4868 43.2467 47.4868C45.0766 47.4868 45.6134 48.48 47.2088 48.4426C48.8513 48.4167 49.8853 46.9456 50.8723 45.4419C52.0543 43.7347 52.5289 42.0515 52.5478 41.9651C52.5101 41.9517 49.3589 40.7253 49.3269 37.0192ZM46.3132 27.9239C47.1363 26.875 47.6995 25.4481 47.5431 24C46.3518 24.0537 44.8619 24.8397 44.0039 25.8655C43.2448 26.7695 42.5667 28.2511 42.7419 29.6445C44.0802 29.7462 45.4542 28.9565 46.3132 27.9239Z" fill="#032041"/>
<path d="M71.4948 48.2661H69.356L68.1844 44.515H64.1121L62.9961 48.2661H60.9138L64.9494 35.4954H67.4413L71.4948 48.2661ZM67.8312 42.9412L66.7717 39.6065C66.6596 39.2658 66.4487 38.4636 66.1398 37.2007H66.1021C65.9778 37.7438 65.7791 38.5461 65.5069 39.6065L64.4653 42.9412H67.8312ZM81.8525 43.5486C81.8525 45.1147 81.4353 46.3526 80.5999 47.2614C79.8522 48.0704 78.9226 48.4744 77.8141 48.4744C76.6171 48.4744 75.7563 48.0397 75.2336 47.1683V52H73.2258V42.0842C73.2258 41.1006 73.2003 40.092 73.1514 39.0576H74.9172L75.0293 40.5172H75.0669C75.7366 39.4174 76.7527 38.8676 78.1164 38.8676C79.1825 38.8676 80.0725 39.2965 80.7845 40.1554C81.4956 41.0162 81.8525 42.1466 81.8525 43.5486ZM79.8069 43.6235C79.8069 42.7272 79.6092 41.9883 79.2117 41.4058C78.7776 40.8002 78.1946 40.497 77.4638 40.497C76.9684 40.497 76.5182 40.6659 76.1161 40.9989C75.713 41.3348 75.4493 41.7733 75.3259 42.3165C75.2709 42.5196 75.2396 42.7286 75.2327 42.9393V44.4756C75.2327 45.1445 75.4342 45.7097 75.8373 46.1722C76.2404 46.6329 76.764 46.8641 77.4082 46.8641C78.1645 46.8641 78.7531 46.5657 79.1741 45.9736C79.596 45.3796 79.8069 44.5965 79.8069 43.6235ZM92.247 43.5486C92.247 45.1147 91.8298 46.3526 90.9944 47.2614C90.2457 48.0704 89.3171 48.4744 88.2077 48.4744C87.0107 48.4744 86.1499 48.0397 85.6272 47.1683V52H83.6193V42.0842C83.6193 41.1006 83.5939 40.092 83.5449 39.0576H85.3107L85.4228 40.5172H85.4605C86.1291 39.4174 87.1453 38.8676 88.51 38.8676C89.5751 38.8676 90.4651 39.2965 91.179 40.1554C91.8891 41.0162 92.247 42.1466 92.247 43.5486ZM90.2005 43.6235C90.2005 42.7272 90.0018 41.9883 89.6043 41.4058C89.1702 40.8002 88.5891 40.497 87.8583 40.497C87.3629 40.497 86.9127 40.6659 86.5087 40.9989C86.1056 41.3348 85.8428 41.7733 85.7195 42.3165C85.6582 42.5698 85.6253 42.7761 85.6253 42.9393V44.4756C85.6253 45.1445 85.8278 45.7097 86.229 46.1722C86.6321 46.6319 87.1557 46.8641 87.8018 46.8641C88.559 46.8641 89.1476 46.5657 89.5676 45.9736C89.9895 45.3796 90.2005 44.5965 90.2005 43.6235ZM103.869 44.6839C103.869 45.7711 103.496 46.6549 102.754 47.3372C101.939 48.0819 100.8 48.4552 99.3405 48.4552C97.9919 48.4552 96.9107 48.1903 96.0951 47.6596L96.5594 45.9544C97.44 46.486 98.4072 46.7509 99.4601 46.7509C100.217 46.7509 100.806 46.5762 101.226 46.2298C101.647 45.8824 101.86 45.418 101.86 44.8384C101.86 44.3192 101.684 43.8845 101.338 43.5304C100.99 43.1772 100.416 42.8481 99.6089 42.5458C97.4145 41.7119 96.3164 40.4922 96.3164 38.8877C96.3164 37.8398 96.7044 36.9819 97.4786 36.3111C98.2527 35.6413 99.2793 35.3064 100.556 35.3064C101.697 35.3064 102.647 35.5089 103.401 35.9129L102.898 37.5807C102.188 37.1892 101.386 36.9934 100.489 36.9934C99.7812 36.9934 99.2256 37.1709 98.8282 37.5241C98.4938 37.8398 98.3243 38.2246 98.3243 38.6814C98.3243 39.1852 98.5174 39.6036 98.9016 39.9318C99.235 40.2341 99.8434 40.5632 100.723 40.9164C101.802 41.3597 102.595 41.876 103.103 42.469C103.614 43.0621 103.869 43.802 103.869 44.6839ZM110.524 40.593H108.311V45.0639C108.311 46.201 108.701 46.7682 109.483 46.7682C109.841 46.7682 110.139 46.7375 110.374 46.6732L110.43 48.2268C110.034 48.3774 109.514 48.4533 108.869 48.4533C108.076 48.4533 107.456 48.2066 107.008 47.7134C106.563 47.2201 106.339 46.3939 106.339 45.2308V40.5891H105.02V39.0537H106.339V37.3677L108.311 36.7612V39.0537H110.524V40.593ZM120.49 43.586C120.49 45.0015 120.093 46.1636 119.3 47.0724C118.47 48.008 117.366 48.4744 115.99 48.4744C114.662 48.4744 113.607 48.0262 112.819 47.1309C112.032 46.2336 111.638 45.1032 111.638 43.7396C111.638 42.3126 112.045 41.1438 112.856 40.235C113.669 39.3253 114.763 38.8704 116.139 38.8704C117.465 38.8704 118.53 39.3195 119.336 40.2158C120.107 41.0853 120.49 42.208 120.49 43.586ZM118.409 43.6331C118.409 42.7896 118.23 42.066 117.871 41.4605C117.45 40.7292 116.847 40.3636 116.067 40.3636C115.262 40.3636 114.645 40.7292 114.225 41.4605C113.866 42.066 113.687 42.802 113.687 43.6714C113.687 44.5159 113.866 45.2414 114.225 45.845C114.66 46.5762 115.265 46.9419 116.05 46.9419C116.817 46.9419 117.419 46.5686 117.854 45.8268C118.223 45.2068 118.409 44.4785 118.409 43.6331ZM127.02 40.8569C126.811 40.8185 126.599 40.7995 126.387 40.8003C125.68 40.8003 125.134 41.0709 124.75 41.6159C124.416 42.0957 124.249 42.7022 124.249 43.4344V48.2661H122.241V41.9576C122.243 40.9909 122.223 40.0243 122.183 39.0585H123.931L124.005 40.8204H124.06C124.273 40.2149 124.607 39.7264 125.064 39.3608C125.483 39.0413 125.992 38.8683 126.516 38.8676C126.701 38.8676 126.869 38.881 127.018 38.905L127.02 40.8569ZM135.999 43.2262C136.005 43.5372 135.98 43.848 135.926 44.1541H129.902C129.925 45.0639 130.217 45.7606 130.776 46.2404C131.284 46.6684 131.94 46.8833 132.747 46.8833C133.638 46.8833 134.452 46.7394 135.184 46.4486L135.498 47.8679C134.643 48.2479 133.634 48.4369 132.469 48.4369C131.067 48.4369 129.967 48.0166 129.167 47.1779C128.368 46.3382 127.968 45.2097 127.968 43.7962C127.968 42.4086 128.34 41.2522 129.085 40.33C129.865 39.3455 130.919 38.8532 132.245 38.8532C133.547 38.8532 134.533 39.3455 135.203 40.33C135.733 41.1102 135.999 42.0775 135.999 43.2262ZM134.085 42.6955C134.099 42.0881 133.967 41.5651 133.695 41.1227C133.347 40.5527 132.812 40.2686 132.096 40.2686C131.439 40.2686 130.904 40.5459 130.498 41.1025C130.163 41.5449 129.964 42.0766 129.903 42.6936L134.085 42.6955Z" fill="#032041"/>
<path d="M63.5324 30.9801C62.9739 30.9801 62.4908 30.9523 62.0886 30.9053V24.7311C62.6511 24.6425 63.2194 24.5989 63.7885 24.6006C66.0912 24.6006 67.1517 25.755 67.1517 27.6368C67.1517 29.8075 65.8991 30.9801 63.5324 30.9801ZM63.8695 25.3922C63.5587 25.3922 63.2941 25.4114 63.0747 25.4575V30.151C63.1933 30.1702 63.4212 30.1789 63.7415 30.1789C65.2502 30.1789 66.1091 29.3037 66.1091 27.6646C66.1091 26.2031 65.3321 25.3922 63.8695 25.3922ZM70.4564 31.0272C69.1586 31.0272 68.3176 30.0397 68.3176 28.6991C68.3176 27.3019 69.1765 26.3058 70.5298 26.3058C71.8088 26.3058 72.6686 27.2462 72.6686 28.6252C72.6686 30.0397 71.7824 31.0272 70.4564 31.0272ZM70.494 27.0409C69.7811 27.0409 69.3243 27.7203 69.3243 28.6703C69.3243 29.6021 69.7905 30.2815 70.4846 30.2815C71.1787 30.2815 71.6449 29.5551 71.6449 28.6511C71.6449 27.7299 71.1881 27.0409 70.494 27.0409ZM80.0692 26.3989L78.68 30.9245H77.775L77.1995 28.9592C77.0565 28.4784 76.9373 27.9907 76.8426 27.4977H76.8238C76.7513 27.9909 76.6137 28.4851 76.4678 28.9592L75.8556 30.9245H74.9411L73.6339 26.3989H74.6482L75.1512 28.5504C75.2698 29.0628 75.3697 29.5465 75.4525 30.0032H75.4714C75.5439 29.6223 75.6626 29.1463 75.8368 28.56L76.4678 26.3999H77.2721L77.8757 28.5139C78.0217 29.0263 78.1404 29.5292 78.2327 30.0042H78.259C78.3231 29.5388 78.4239 29.0446 78.5604 28.5139L79.1001 26.3999L80.0692 26.3989ZM85.183 30.9245H84.1961V28.3258C84.1961 27.5255 83.8947 27.1244 83.3004 27.1244C82.7156 27.1244 82.3134 27.6368 82.3134 28.2327V30.9245H81.3264V27.6925C81.3264 27.2923 81.317 26.8634 81.2897 26.3979H82.158L82.2042 27.0965H82.2315C82.4971 26.6129 83.0358 26.3058 83.6395 26.3058C84.5718 26.3058 85.184 27.0322 85.184 28.2145L85.183 30.9245ZM87.9048 30.9245H86.9169V24.3223H87.9048V30.9245ZM91.5034 31.0272C90.2065 31.0272 89.3646 30.0397 89.3646 28.6991C89.3646 27.3019 90.2235 26.3058 91.5759 26.3058C92.8557 26.3058 93.7147 27.2462 93.7147 28.6252C93.7156 30.0397 92.8284 31.0272 91.5034 31.0272ZM91.5401 27.0409C90.8271 27.0409 90.3704 27.7203 90.3704 28.6703C90.3704 29.6021 90.8375 30.2815 91.5297 30.2815C92.2248 30.2815 92.69 29.5551 92.69 28.6511C92.6909 27.7299 92.2351 27.0409 91.5401 27.0409ZM97.6061 30.9245L97.5345 30.4034H97.5082C97.2068 30.8228 96.767 31.0272 96.2094 31.0272C95.4136 31.0272 94.8486 30.4591 94.8486 29.6952C94.8486 28.5782 95.7988 28.0005 97.4441 28.0005V27.917C97.4441 27.3211 97.1343 27.0227 96.5221 27.0227C96.0842 27.0227 95.6999 27.1349 95.3618 27.3585L95.1612 26.6973C95.5719 26.4363 96.0842 26.3058 96.686 26.3058C97.8463 26.3058 98.432 26.9296 98.432 28.178V29.8449C98.432 30.3017 98.4518 30.6558 98.4961 30.9254L97.6061 30.9245ZM97.4705 28.6703C96.3743 28.6703 95.8243 28.9409 95.8243 29.5829C95.8243 30.0579 96.1077 30.2902 96.5014 30.2902C97.0034 30.2902 97.4705 29.8996 97.4705 29.3689V28.6703ZM103.225 30.9245L103.179 30.1981H103.151C102.868 30.747 102.391 31.0272 101.725 31.0272C100.655 31.0272 99.8617 30.0675 99.8617 28.7173C99.8617 27.3019 100.684 26.3049 101.806 26.3049C102.401 26.3049 102.822 26.5093 103.059 26.92H103.079V24.3223H104.067V29.7048C104.067 30.1424 104.077 30.5522 104.103 30.9245H103.225ZM103.079 28.2615C103.079 27.6282 102.667 27.0879 102.039 27.0879C101.307 27.0879 100.86 27.7491 100.86 28.6799C100.86 29.5925 101.324 30.2172 102.019 30.2172C102.64 30.2172 103.079 29.6674 103.079 29.0158V28.2615ZM110.331 31.0272C109.034 31.0272 108.193 30.0397 108.193 28.6991C108.193 27.3019 109.052 26.3058 110.404 26.3058C111.684 26.3058 112.543 27.2462 112.543 28.6252C112.544 30.0397 111.658 31.0272 110.331 31.0272ZM110.367 27.0409C109.655 27.0409 109.199 27.7203 109.199 28.6703C109.199 29.6021 109.665 30.2815 110.358 30.2815C111.053 30.2815 111.518 29.5551 111.518 28.6511C111.52 27.7299 111.063 27.0409 110.367 27.0409ZM117.851 30.9245H116.863V28.3258C116.863 27.5255 116.561 27.1244 115.967 27.1244C115.382 27.1244 114.981 27.6368 114.981 28.2327V30.9245H113.993V27.6925C113.993 27.2923 113.984 26.8634 113.956 26.3979H114.825L114.871 27.0965H114.898C115.163 26.6129 115.702 26.3049 116.305 26.3049C117.238 26.3049 117.851 27.0313 117.851 28.2135V30.9245ZM124.491 27.1532H123.405V29.3507C123.405 29.9102 123.596 30.1894 123.98 30.1894C124.154 30.1894 124.3 30.1702 124.418 30.1424L124.445 30.9063C124.254 30.9811 123.998 31.0185 123.679 31.0185C122.901 31.0185 122.436 30.5809 122.436 29.4351V27.1532H121.788V26.3989H122.436V25.5698L123.405 25.2713V26.3979H124.491V27.1532ZM129.716 30.9245H128.73V28.345C128.73 27.5351 128.43 27.1253 127.835 27.1253C127.323 27.1253 126.847 27.4794 126.847 28.1963V30.9245H125.861V24.3223H126.847V27.0409H126.866C127.177 26.5476 127.627 26.3049 128.202 26.3049C129.142 26.3049 129.716 27.0495 129.716 28.2327V30.9245ZM135.069 28.9035H132.107C132.126 29.7605 132.683 30.2441 133.507 30.2441C133.945 30.2441 134.348 30.1693 134.704 30.0301L134.857 30.7287C134.437 30.9149 133.943 31.008 133.368 31.008C131.978 31.008 131.156 30.1136 131.156 28.7269C131.156 27.3393 131.998 26.2962 133.256 26.2962C134.391 26.2962 135.103 27.1532 135.103 28.4477C135.11 28.6005 135.098 28.7535 135.069 28.9035ZM134.164 28.1867C134.164 27.4881 133.819 26.9948 133.188 26.9948C132.621 26.9948 132.172 27.4977 132.108 28.1867H134.164Z" fill="#032041"/>
<defs>
<filter id="filter0_d" x="0" y="0" width="168" height="88" filterUnits="userSpaceOnUse" color-interpolation-filters="sRGB">
<feFlood flood-opacity="0" result="BackgroundImageFix"/>
<feColorMatrix in="SourceAlpha" type="matrix" values="0 0 0 0 0 0 0 0 0 0 0 0 0 0 0 0 0 0 127 0"/>
<feOffset dy="6"/>
<feGaussianBlur stdDeviation="10"/>
<feColorMatrix type="matrix" values="0 0 0 0 0.214965 0 0 0 0 0.405498 0 0 0 0 0.629167 0 0 0 0.1 0"/>
<feBlend mode="normal" in2="BackgroundImageFix" result="effect1_dropShadow"/>
<feBlend mode="normal" in="SourceGraphic" in2="effect1_dropShadow" result="shape"/>
</filter>
</defs>
</svg>
