<svg width="64" height="64" viewBox="0 0 16 16" fill="none" xmlns="http://www.w3.org/2000/svg">
<path d="M7.89549 2.57511C8.21875 2.75705 8.51906 2.97695 8.79001 3.23013L8.69062 3.32937C8.19457 3.27614 7.67141 3.342 7.19976 3.34922C7.14735 3.29689 7.04164 3.21659 7.14013 3.15073L7.89549 2.57511ZM16.678 8.73555C16.6843 8.9593 16.706 9.15148 16.6184 9.38065C15.7148 9.63868 15.1149 8.67961 14.2348 8.82397L14.3342 9.3211C15.1474 9.34816 15.657 10.1277 16.5027 10.0943C16.3826 10.3325 16.556 10.9614 16.0257 10.7096C15.4763 10.5779 15.0787 10.0943 14.4761 10.0943C14.4038 10.2278 14.4499 10.4119 14.4372 10.5698C15.0697 10.669 15.5296 11.2059 16.1648 11.3051C16.1052 11.5225 16.0455 11.7671 15.8666 11.8997C15.3498 11.7743 14.9459 11.3105 14.3956 11.3241L14.2945 11.7806C14.8176 11.7941 15.1555 12.2561 15.6254 12.395C15.638 12.5872 15.4655 12.7559 15.3661 12.9318C14.9495 12.8064 14.6315 12.4482 14.1544 12.4744C14.1481 12.294 14.2547 12.0919 14.214 11.8997C13.6782 12.0594 13.3195 11.5622 12.9229 11.2681C12.9111 10.2928 11.8829 9.65312 11.8287 8.74187C11.8186 8.5417 11.8529 8.34177 11.929 8.15632C12.2669 7.37589 12.1612 6.36358 11.7907 5.63638C11.6629 5.44876 11.4922 5.29415 11.2929 5.18526C11.5639 5.76089 11.8964 6.44117 11.7302 7.14852C11.7112 7.69528 11.3886 8.21947 11.385 8.74638C11.3822 8.94446 11.4331 9.13962 11.5323 9.31117C11.9624 10.0862 12.7376 10.8197 12.4467 11.7914C12.3663 12.0901 12.1277 12.3201 12.0681 12.6242C12.5723 13.041 13.0485 13.5111 13.7171 13.5372C13.9556 13.3857 13.8228 12.7108 14.3134 13.0221L15.029 13.3829C14.9766 13.5742 14.8167 13.7438 14.6676 13.8774C14.3966 13.7456 14.1309 13.5878 13.7921 13.6004C13.7376 13.6472 13.6933 13.7048 13.6622 13.7696C13.6311 13.8344 13.6138 13.9048 13.6114 13.9766C13.8483 14.0188 14.0726 14.1141 14.2673 14.2554C14.177 14.4539 13.9963 14.5784 13.8291 14.7309L13.2743 14.5324C13.184 14.665 12.9888 14.8031 13.0566 14.9492C13.1877 15 13.3083 15.0743 13.4126 15.1685C13.1677 15.4328 12.8578 15.6033 12.5587 15.782C12.3012 14.942 11.4528 14.3528 11.526 13.382L11.4862 13.3424C11.2874 13.5661 11.3534 13.9243 11.366 14.2148C11.6055 14.8229 12.1738 15.293 12.2606 15.9606C12.1612 16.1321 11.9362 16.1663 11.7636 16.2394C11.7835 15.0358 9.9565 14.1237 11.1311 12.9066C11.5215 12.3102 12.1765 11.7418 11.9443 10.9217C11.7067 10.1295 10.86 9.63959 10.8709 8.75089V8.68142C11.0624 7.75572 11.6452 6.77049 11.1691 5.78525C11.0353 5.38827 10.739 4.93805 10.3351 4.77294C10.6465 5.14814 10.8557 5.59717 10.9426 6.07667C11.0295 6.55618 10.9911 7.04996 10.8311 7.51032C10.6577 7.87933 10.4182 8.31782 10.3947 8.75089C10.3774 8.98661 10.4412 9.22118 10.5754 9.41583C11.0326 10.1566 11.8269 10.9704 11.3706 11.9358C10.8537 12.709 9.95288 13.4966 10.4562 14.5143C10.8176 15.1234 11.3832 15.7306 11.2314 16.4785L10.636 16.6761C11.0326 15.2812 9.08547 14.462 9.90048 13.0672C10.4038 12.3201 11.3046 11.6236 10.795 10.6311C10.4905 10.0167 9.86072 9.65312 9.8806 8.88532L9.90228 8.7563C10.1074 7.66731 10.9359 6.63696 10.3541 5.47217C10.1823 5.10336 9.90582 4.79306 9.55893 4.57987L9.53906 4.60062C9.87041 4.93552 10.096 5.36018 10.1879 5.82193C10.2798 6.28368 10.2339 6.7622 10.0559 7.19815C9.88602 7.7061 9.51376 8.21225 9.43695 8.7563C9.39568 9.03234 9.44581 9.3143 9.57972 9.55929C10.0098 10.2405 10.7652 10.9623 10.2944 11.8419C9.79838 12.5691 8.96982 13.2765 9.30052 14.2211C9.66194 15.0485 10.4254 15.8361 10.0152 16.8611L9.39991 17C9.88964 16.0003 9.15505 15.0088 8.72496 14.1426C8.2018 12.8994 9.84988 12.3039 9.87608 11.1653C9.86976 10.4317 9.08909 10.0149 8.92374 9.34095C8.58581 9.05584 8.23523 9.45373 7.83134 9.37974C7.53227 9.44019 7.07416 8.97013 6.89616 9.47899C6.68383 10.226 5.72155 10.7755 6.1426 11.6615C6.54649 12.4482 7.51871 13.0239 7.19434 14.0425C6.90339 14.9943 5.94201 15.9002 6.53836 16.9982C6.2935 16.9188 5.8363 17.0704 5.84262 16.6797C5.46584 15.3507 7.07507 14.5766 6.57812 13.2512C6.34681 12.4392 5.29236 11.9881 5.52457 11.0101C5.69625 10.2044 6.60161 9.64049 6.47421 8.7545C6.46327 8.67689 6.44512 8.60048 6.41999 8.52623C6.08207 7.57438 5.39265 6.62162 5.80377 5.51007C5.91672 5.19248 6.1417 4.92181 6.33958 4.63851C5.6845 4.98858 5.3529 5.72931 5.36645 6.48268C5.33844 7.3028 5.94472 8.00474 6.03056 8.7545C6.07107 9.0855 5.99054 9.41999 5.80377 9.69643C5.37368 10.2793 4.80986 10.8937 5.06918 11.6606C5.31404 12.4347 6.28085 12.9039 6.22121 13.8034C6.21489 14.868 4.97612 15.5303 5.3276 16.7212L4.7168 16.502C4.47284 15.4446 5.59776 14.9032 5.61131 13.9252C5.77034 12.7992 4.33279 12.3815 4.41953 11.2853C4.4132 10.4516 5.14779 9.92379 5.47217 9.22275C5.52424 9.06583 5.54691 8.90067 5.53903 8.73555C5.49927 7.96053 4.79992 7.35513 4.91558 6.47997C4.94335 5.85788 5.18125 5.26352 5.59053 4.7937C5.01497 5.02467 4.77734 5.68691 4.61831 6.23727C4.34182 7.12867 5.00051 7.92986 5.07009 8.72833C5.099 9.0802 5.01226 9.43117 4.68066 9.78936C4.20358 10.3505 3.71927 11.0588 4.06443 11.8131C4.42585 12.6458 5.57517 13.2936 5.07822 14.3321C4.80715 14.9871 4.1575 15.4824 4.1837 16.2566C4.00351 16.1926 3.83548 16.0987 3.68675 15.9787C3.68675 14.9943 5.09087 14.379 4.42224 13.3405C4.36261 13.5454 4.34995 13.8241 4.30387 14.0551C4.07166 14.6569 3.57471 15.1378 3.38948 15.7612C3.05153 15.6134 2.7472 15.3985 2.49496 15.1297L2.85638 14.9104C2.80108 14.776 2.7204 14.6535 2.61875 14.5495C2.38654 14.5171 2.23384 14.6695 2.04228 14.73C1.87355 14.5947 1.71996 14.4417 1.58418 14.2735C1.70345 13.9351 2.6323 14.2148 2.16155 13.659C1.8444 13.4605 1.52906 13.7438 1.24716 13.8765L0.870375 13.401C1.19475 13.2025 1.51822 12.9246 1.92211 13.004C2.0215 13.1845 2.02873 13.4461 2.22028 13.539C2.90246 13.5264 3.38586 13.0112 3.90902 12.607C3.5476 12.0657 3.24762 11.3177 3.57109 10.6627C3.83041 10.0068 4.50717 9.45373 4.53789 8.72833C4.5445 8.54865 4.51373 8.36954 4.44754 8.20233C4.08612 7.28295 3.96323 6.03697 4.64542 5.22496C4.27496 5.32421 4.0563 5.78615 3.9298 6.13712C3.51959 7.03935 4.03823 7.8658 4.0563 8.72653C4.06029 8.88336 4.04451 9.04008 4.00932 9.19298C3.65783 9.90033 3.0886 10.5211 2.99643 11.3349C2.59255 11.592 2.26094 12.0422 1.68448 11.8907C1.67628 12.0792 1.70324 12.2677 1.76399 12.4464C1.30679 12.4275 0.995968 12.7631 0.611055 12.9219C0.406852 12.856 0.353543 12.5917 0.274031 12.4067C0.725807 12.2552 1.04837 11.8049 1.56521 11.8122C1.62484 11.6462 1.53178 11.4937 1.50557 11.3349C0.862244 11.0498 -0.15606 12.7433 -0.241898 11.2753C0.400528 11.2356 0.810741 10.6438 1.44684 10.5806L1.46582 10.1051C0.742975 10.033 0.279452 10.7737 -0.441583 10.7006L-0.601512 10.069C0.233371 10.1205 0.731227 9.37433 1.52545 9.33373C1.63117 9.19479 1.64382 8.98998 1.6646 8.79871C0.797187 8.68593 0.201746 9.6459 -0.719877 9.35448C-0.719877 9.35448 -0.751501 8.95479 -0.768669 8.72923C-0.774994 8.63901 -0.781318 8.57946 -0.781318 8.57946C0.0400106 8.89795 0.761949 8.30879 1.46401 8.00474C1.64472 7.95151 1.92121 8.04444 2.00162 7.84595C1.99439 7.69347 2.27269 7.51573 2.04138 7.41017C1.01404 7.27032 0.331858 8.50728 -0.721684 7.94519L-0.800293 7.7864C-0.587958 4.80362 1.10259 1.91467 3.9036 0.492753C5.03756 -0.15505 6.4471 -0.485267 7.86839 -0.499703C9.58514 -0.513237 11.3172 -0.0639249 12.6066 0.84733C13.8589 1.61423 15.0561 2.87826 15.7058 4.16123C16.3274 5.28541 16.6094 6.54673 16.6997 7.88926C15.6154 8.70938 14.8845 7.11694 13.7776 7.47333C13.8373 7.64565 13.868 7.8243 13.9972 7.96955C14.9775 7.96234 15.6525 8.98727 16.6789 8.58397V8.73284L16.678 8.73555ZM4.19906 5.05444C3.51056 4.60332 2.63682 5.02828 1.9953 5.27368C1.93566 4.67189 1.6908 4.12334 1.1821 3.72635C1.12723 3.68887 1.066 3.66166 1.00139 3.64606C0.980731 3.64475 0.960163 3.64975 0.942412 3.66038C0.924662 3.67102 0.910568 3.68679 0.901999 3.7056C1.13331 5.12752 0.208071 6.11908 -0.447908 7.19724C-0.229248 7.37769 0.12133 7.34882 0.386071 7.29649C1.0809 7.0195 1.7414 6.53591 2.57176 6.70192C2.81572 6.28509 3.22774 5.88179 3.56567 5.55067C3.77168 5.37022 4.05449 5.25925 4.19816 5.05444H4.19906ZM6.30524 5.94765C6.29259 6.03336 6.31247 6.18584 6.44439 6.1281C6.6504 5.84299 7.01363 6.06855 7.23951 6.0884V6.0081C7.11573 5.81502 6.86183 5.71758 6.60703 5.72751C6.54612 5.72952 6.48558 5.73768 6.42632 5.75187C6.40488 5.75576 6.38451 5.76414 6.36654 5.77645C6.34857 5.78876 6.33342 5.80473 6.32207 5.82331C6.31072 5.84188 6.30343 5.86264 6.30069 5.88423C6.29795 5.90581 6.2998 5.92774 6.30614 5.94855L6.30524 5.94765ZM9.54357 5.09594C9.36286 4.68543 8.93548 4.51942 8.54967 4.42017C8.35779 4.39613 8.16475 4.38258 7.97139 4.37957C7.93525 4.37957 7.8982 4.37957 7.86206 4.37957C7.31993 4.3904 6.80039 4.53024 6.48415 4.97595C6.43806 5.10226 6.23838 5.2791 6.42451 5.39188C6.84105 5.36481 7.31722 5.31248 7.59913 5.67067C7.59913 5.98825 7.80514 6.4114 7.46089 6.56297C7.17536 6.29952 6.83743 6.67575 6.52752 6.46373C6.38114 6.3735 6.28898 6.47816 6.22934 6.60357C6.19325 7.03389 6.27774 7.46575 6.47337 7.85086C6.669 8.23597 6.96806 8.55915 7.3371 8.78427C7.64882 8.89615 8.06717 9.00351 8.39154 8.84382C9.17312 8.48292 9.49659 7.64836 9.64297 6.88056C9.62309 6.7344 9.63031 6.45019 9.42521 6.44298C9.193 6.59004 8.85507 6.50343 8.61201 6.44298C8.46654 6.48989 8.46021 6.70192 8.29486 6.74252L8.19367 6.66222C8.10783 6.30133 8.05452 5.78344 8.39245 5.53172C8.77013 5.37924 9.21378 5.31338 9.60502 5.43248C9.6782 5.30707 9.56526 5.20782 9.54448 5.09594H9.54357ZM9.14421 5.74826C9.118 5.74826 9.0927 5.74826 9.0665 5.74826C8.92826 5.83848 8.52437 5.77352 8.66984 6.08479C8.92103 5.8863 9.27251 6.02524 9.52369 6.12449C9.61405 6.07757 9.59688 5.98554 9.60321 5.90525C9.52279 5.75818 9.33034 5.74375 9.14421 5.74826ZM12.0274 2.95134C11.5377 2.92607 11.1239 3.20396 10.6766 3.32937C10.6378 2.94683 10.9287 2.54263 10.9947 2.15647C10.2664 2.20339 9.68995 2.64097 9.08728 2.99103C8.94813 2.6545 8.80808 2.31616 8.66984 1.97873L9.46406 1.22446L9.48484 1.12522L8.41142 1.06567C8.22619 0.741769 8.15391 0.352004 7.93525 0.0542676C7.75454 0.391703 7.63618 0.748987 7.45727 1.08552L6.38566 1.14507V1.22446L7.19886 1.95798C7.09946 2.33511 7.0073 2.74472 6.76244 3.02983C6.28536 2.74472 5.81552 2.43436 5.29236 2.23677C5.16677 2.19617 4.98786 2.1303 4.87492 2.21602C5.04027 2.57691 5.27158 2.97119 5.23634 3.36817C5.01768 3.32847 4.84601 3.18772 4.6409 3.12908C4.39513 3.06231 4.10329 2.93149 3.86475 3.01088C4.26231 3.56666 4.58759 4.1477 4.69873 4.81535C6.01791 4.18379 7.55486 3.83101 9.15143 4.10168C9.89957 4.22078 10.5872 4.52483 11.2567 4.77565C11.2829 4.07552 11.7266 3.51252 12.0311 2.94953L12.0274 2.95134ZM14.2945 6.76146C14.9694 6.94191 15.6498 7.67452 16.3618 7.19724C15.7392 6.16599 14.8122 5.21233 15.0706 3.8644C15.077 3.84365 15.0789 3.8218 15.0763 3.80026C15.0736 3.77873 15.0665 3.75798 15.0554 3.73936C15.0442 3.72074 15.0293 3.70466 15.0115 3.69217C14.9937 3.67967 14.9735 3.67103 14.9522 3.66681C14.5483 3.83101 14.2348 4.2289 14.0758 4.61866C14.0242 4.85408 13.9581 5.0861 13.8779 5.31338C13.3945 5.06166 12.8786 4.81806 12.2886 4.8767C12.0762 4.90377 11.7717 4.9173 11.7329 5.13564C12.4015 5.49202 12.9518 6.0875 13.3593 6.72177C13.6707 6.68926 13.9852 6.70264 14.2926 6.76146H14.2945ZM7.21964 7.69347L7.23861 7.81347C7.49793 7.98489 7.57744 8.27722 7.93615 8.25015C8.2533 8.2691 8.49184 7.97226 8.64996 7.73407C8.21987 7.67452 7.69671 7.76655 7.21964 7.69347ZM7.58106 7.15845C7.59461 7.21078 7.54853 7.29017 7.62081 7.31724C7.83315 7.27123 8.21625 7.43002 8.33462 7.1783C8.28713 7.13191 8.23043 7.09598 8.16818 7.07283C8.10593 7.04967 8.03951 7.03981 7.9732 7.04386C7.83294 7.04291 7.69544 7.08272 7.57745 7.15845H7.58106Z" fill="#007042"/>
</svg>
