<svg width="168" height="88" viewBox="0 0 168 88" fill="none" xmlns="http://www.w3.org/2000/svg">
<g filter="url(#filter0_d)">
<rect x="20" y="14" width="128" height="48" rx="8" fill="white"/>
</g>
<path d="M29 24.1008V51.8975L42.9314 37.9993L29 24.1008Z" fill="url(#paint0_linear)"/>
<path d="M46.6731 34.2664L41.0495 30.9998L29 24V24.1011L42.9314 37.9996L46.6731 34.2664Z" fill="url(#paint1_linear)"/>
<path d="M29 51.8977V51.9988L41.0495 44.9988L46.6729 41.7322L42.9314 37.9995L29 51.8977Z" fill="url(#paint2_linear)"/>
<path d="M46.6728 34.2665L42.9312 37.9997L46.6726 41.7324L53.0994 37.9994L46.6728 34.2665Z" fill="url(#paint3_linear)"/>
<path d="M116.706 43.4331C116.182 43.4331 115.705 43.3359 115.273 43.1419C114.84 42.9476 114.477 42.6488 114.184 42.2459H114.096C114.154 42.718 114.184 43.1655 114.184 43.5881V46.9146H112.967V35.2018H113.957L114.125 36.3082H114.184C114.497 35.8654 114.861 35.5462 115.276 35.3494C115.691 35.1527 116.168 35.0543 116.705 35.0543C117.771 35.0543 118.593 35.4208 119.172 36.1534C119.751 36.8859 120.041 37.9139 120.041 39.2362C120.041 40.5639 119.746 41.5951 119.158 42.3308C118.569 43.0658 117.752 43.4331 116.706 43.4331ZM116.53 36.0943C115.709 36.0943 115.115 36.3232 114.748 36.7802C114.382 37.2375 114.194 37.9654 114.184 38.9637V39.2362C114.184 40.3723 114.372 41.1849 114.748 41.6743C115.125 42.1638 115.729 42.4079 116.559 42.4079C117.253 42.4079 117.797 42.1255 118.191 41.56C118.584 40.9948 118.78 40.2154 118.78 39.2215C118.78 38.2139 118.584 37.4401 118.191 36.9019C117.797 36.3631 117.243 36.0943 116.53 36.0943ZM122.859 43.2854H121.642V31.8088H122.859V43.2854ZM129.855 43.2854L129.613 42.1348H129.555C129.154 42.6417 128.754 42.9849 128.356 43.1637C127.958 43.3435 127.46 43.4331 126.864 43.4331C126.068 43.4331 125.444 43.2265 124.991 42.8136C124.539 42.4008 124.313 41.8134 124.313 41.0509C124.313 39.4187 125.611 38.563 128.206 38.484L129.57 38.4396V37.9382C129.57 37.3037 129.434 36.8352 129.163 36.5332C128.892 36.2304 128.457 36.0793 127.861 36.0793C127.192 36.0793 126.434 36.2859 125.589 36.6988L125.215 35.7621C125.611 35.5457 126.044 35.3762 126.516 35.2533C126.988 35.1304 127.461 35.0688 127.935 35.0688C128.893 35.0688 129.602 35.2825 130.065 35.7103C130.526 36.1382 130.757 36.8241 130.757 37.7684V43.2852H129.855V43.2854H129.855ZM127.106 42.4228C127.863 42.4228 128.458 42.2138 128.891 41.796C129.323 41.3782 129.54 40.7928 129.54 40.0402V39.3101L128.323 39.3613C127.355 39.3964 126.658 39.547 126.23 39.8157C125.802 40.0836 125.588 40.5004 125.588 41.0659C125.588 41.5082 125.721 41.8453 125.988 42.0759C126.255 42.3073 126.627 42.4228 127.106 42.4228ZM131.463 35.2018H132.768L134.527 39.8117C134.913 40.8642 135.153 41.6238 135.246 42.0911H135.305C135.368 41.8399 135.502 41.4113 135.704 40.8034C135.907 40.1959 136.571 38.3292 137.694 35.2018H139L135.547 44.4068C135.205 45.3165 134.805 45.9619 134.348 46.3437C133.891 46.7244 133.33 46.9146 132.666 46.9146C132.294 46.9146 131.928 46.8729 131.566 46.7895V45.8086C131.834 45.8675 132.135 45.8972 132.468 45.8972C133.304 45.8972 133.899 45.4252 134.257 44.4809L134.704 43.3305L131.463 35.2018ZM94.163 35.953C94.5492 36.2746 95.3559 36.9502 95.3559 38.236C95.3559 39.4865 94.6499 40.0794 93.944 40.6366C93.7255 40.8561 93.4734 41.0936 93.4734 41.466C93.4734 41.8372 93.7253 42.0403 93.9109 42.1927L94.5161 42.6652C95.2554 43.291 95.9269 43.8663 95.9269 45.0334C95.9269 46.6226 94.3976 48.2283 91.5076 48.2283C89.0705 48.2283 87.8947 47.062 87.8947 45.8101C87.8947 45.2017 88.1958 44.3398 89.1887 43.7473C90.2299 43.1048 91.6425 43.0212 92.3983 42.9692C92.1623 42.6652 91.8941 42.3438 91.8941 41.8205C91.8941 41.5335 91.9785 41.3642 92.0621 41.1603C91.8765 41.1775 91.692 41.1944 91.5237 41.1944C89.743 41.1944 88.7347 39.8586 88.7347 38.5405C88.7347 37.7625 89.088 36.8997 89.8098 36.2748C90.7681 35.4802 91.9107 35.3445 92.819 35.3445H96.28L95.2044 35.9532H94.163V35.953H94.163ZM92.9694 43.4606C92.835 43.4429 92.7507 43.4429 92.5834 43.4429C92.4322 43.4429 91.5234 43.4775 90.8185 43.7147C90.4489 43.8489 89.373 44.2547 89.373 45.4558C89.373 46.6558 90.5332 47.5193 92.3315 47.5193C93.9438 47.5193 94.8018 46.7399 94.8018 45.6926C94.8018 44.8285 94.2471 44.3739 92.9694 43.4606ZM93.4571 40.2475C93.8431 39.8581 93.8762 39.3177 93.8762 39.013C93.8762 37.7959 93.154 35.9022 91.7595 35.9022C91.322 35.9022 90.8519 36.1217 90.583 36.4603C90.2976 36.8153 90.2128 37.2714 90.2128 37.7115C90.2128 38.8442 90.8682 40.7212 92.3142 40.7212C92.7343 40.7212 93.1872 40.5183 93.4571 40.2475ZM83.5831 43.19C80.9158 43.19 79.4896 41.0966 79.4896 39.2055C79.4896 36.9939 81.2845 35.1041 83.8357 35.1041C86.3009 35.1041 87.8447 37.0447 87.8447 39.0878C87.8449 41.0789 86.3187 43.19 83.5831 43.19ZM85.6801 41.8227C86.0834 41.282 86.1841 40.6071 86.1841 39.9482C86.1841 38.4622 85.4794 35.6267 83.3988 35.6267C82.8453 35.6267 82.2918 35.8465 81.8892 36.2017C81.2347 36.7917 81.1167 37.5349 81.1167 38.2615C81.1167 39.9315 81.9389 42.6824 83.9696 42.6824C84.6238 42.6824 85.2951 42.3622 85.6801 41.8227ZM74.4892 43.19C71.8213 43.19 70.3949 41.0966 70.3949 39.2055C70.3949 36.9939 72.1905 35.1041 74.741 35.1041C77.207 35.1041 78.7505 37.0447 78.7505 39.0878C78.7507 41.0789 77.2243 43.19 74.4892 43.19ZM76.5867 41.8227C76.9892 41.282 77.0902 40.6071 77.0902 39.9482C77.0902 38.4622 76.385 35.6267 74.3043 35.6267C73.751 35.6267 73.1971 35.8465 72.7947 36.2017C72.1403 36.7917 72.023 37.5349 72.023 38.2615C72.023 39.9315 72.8447 42.6824 74.8756 42.6824C75.5301 42.6824 76.2009 42.3622 76.5867 41.8227ZM69.1133 42.9253L66.7007 43.4853C65.7219 43.6384 64.8451 43.7731 63.9178 43.7731C59.2615 43.7731 57.491 40.3277 57.491 37.6291C57.491 34.337 60.004 31.2828 64.306 31.2828C65.2172 31.2828 66.0936 31.4183 66.8863 31.6391C68.1513 31.9955 68.7417 32.4364 69.113 32.6913L67.7124 34.032L67.1223 34.1672L67.5439 33.4881C66.9707 32.9285 65.9239 31.8935 63.9341 31.8935C61.2688 31.8935 59.261 33.9309 59.261 36.9007C59.261 40.0905 61.5555 43.0945 65.2321 43.0945C66.3128 43.0945 66.8683 42.8742 67.3747 42.6701V39.9384L64.8281 40.074L66.177 39.3434H69.7533L69.3152 39.7676C69.1962 39.8699 69.1799 39.9043 69.1462 40.0387C69.1286 40.1918 69.1128 40.6844 69.1128 40.8539V42.9253H69.1133V42.9253Z" fill="#032041"/>
<path d="M99.496 42.4367C98.9391 42.3856 98.8225 42.2843 98.8225 41.6217V32.016C98.8259 31.9795 98.8281 31.9419 98.8315 31.9066C98.8996 31.3129 99.0681 31.2111 99.5916 30.9052H97.1786L95.9131 31.5163H97.2027V31.5239L97.2018 31.5177V41.9956C97.2018 42.3344 97.1352 42.3859 96.7468 42.8944H99.7328L100.357 42.522C100.071 42.487 99.7833 42.4705 99.496 42.4367ZM106.36 42.5927C106.176 42.694 105.992 42.8125 105.808 42.8962C105.255 43.1489 104.685 43.2166 104.182 43.2166C103.647 43.2166 102.809 43.1817 101.954 42.5588C100.765 41.7154 100.246 40.266 100.246 39.0023C100.246 36.3902 102.356 35.1094 104.082 35.1094C104.685 35.1094 105.306 35.2607 105.808 35.5817C106.645 36.1368 106.863 36.8615 106.979 37.2494L103.044 38.8512L101.753 38.9522C102.172 41.0927 103.612 42.339 105.204 42.339C106.058 42.339 106.679 42.0363 107.248 41.7502L106.36 42.5927ZM104.786 37.5693C105.104 37.4518 105.271 37.3502 105.271 37.1145C105.271 36.4408 104.518 35.6651 103.612 35.6651C102.941 35.6651 101.686 36.1879 101.686 38.0077C101.686 38.2943 101.72 38.5975 101.737 38.9019L104.786 37.5693ZM107.977 35.2247V36.3368H107.843V35.2247H107.477V35.1094H108.342V35.2247H107.977ZM109.484 36.3368V35.2144H109.478L109.137 36.3368H109.032L108.689 35.2144H108.685V36.3368H108.563V35.1094H108.772L109.082 36.1015H109.087L109.393 35.1094H109.605V36.3368H109.484Z" fill="#032041"/>
<path d="M60.8421 27.9781H60.0038C60.0038 27.8621 59.9243 27.5336 59.7653 26.9924H58.5551C58.391 27.5247 58.3088 27.8532 58.3088 27.9781H57.5205C57.5205 27.9097 57.7244 27.3474 58.1321 26.2915C58.5397 25.2356 58.7436 24.6539 58.7436 24.5469H59.7338C59.7338 24.647 59.9184 25.2201 60.2878 26.2664C60.6572 27.3128 60.8421 27.8832 60.8421 27.9781ZM59.6319 26.489C59.3332 25.5824 59.184 25.0923 59.184 25.0184H59.142C59.142 25.0869 58.9874 25.577 58.6785 26.489H59.6319ZM64.2197 27.9781H63.5728C63.5728 27.906 63.3327 27.5257 62.8525 26.8371C62.3497 26.1114 62.0632 25.6153 61.9935 25.3482H61.9516C61.9952 25.7328 62.0172 26.0807 62.0172 26.3918C62.0172 26.8258 62.0294 27.3548 62.0537 27.9784H61.4093C61.4353 27.4337 61.4485 26.8356 61.4485 26.1838C61.4485 25.5425 61.4354 24.9969 61.4093 24.5472H62.1871C62.1871 24.6404 62.4027 25.0121 62.834 25.662C63.2932 26.3523 63.557 26.8207 63.625 27.0667H63.6643C63.6224 26.6749 63.6014 26.3236 63.6014 26.0125C63.6014 25.5366 63.5892 25.0479 63.5648 24.5472H64.2198C64.1951 24.9829 64.1832 25.5285 64.1832 26.1838C64.1829 26.844 64.1951 27.4421 64.2197 27.9781ZM68.016 26.1438C68.016 26.6428 67.8571 27.0785 67.5393 27.4509C67.2214 27.8236 66.7761 28.0095 66.2033 28.0095C65.9449 28.0095 65.5886 27.999 65.1346 27.9779C65.1573 27.4472 65.1687 26.8489 65.1687 26.1833C65.1687 25.544 65.1573 24.9983 65.1346 24.5467H65.593C65.6681 24.5467 65.7798 24.544 65.9283 24.5388C66.0765 24.5337 66.1736 24.531 66.2189 24.531C66.8493 24.531 67.3062 24.6892 67.5903 25.0054C67.8741 25.3217 68.016 25.701 68.016 26.1438ZM67.3011 26.2571C67.3011 25.9198 67.2033 25.6357 67.0077 25.4043C66.8122 25.1735 66.5135 25.0579 66.1119 25.0579C66.0368 25.0579 65.9339 25.0658 65.8027 25.0817C65.82 25.4333 65.8288 25.8003 65.8288 26.1833C65.8288 26.6033 65.8376 27.0196 65.8549 27.4325C65.9669 27.4552 66.0809 27.4667 66.1952 27.4668C66.5708 27.4668 66.8487 27.3494 67.0294 27.1148C67.2101 26.8803 67.3011 26.5944 67.3011 26.2571ZM71.5168 27.9781H70.7414C70.5388 27.3562 70.3835 26.9723 70.2752 26.8265C70.1669 26.6806 69.9924 26.6077 69.7514 26.6077C69.65 26.6077 69.5532 26.6087 69.4608 26.6104C69.4608 27.0621 69.4686 27.5179 69.4844 27.9781H68.7563C68.779 27.4475 68.7905 26.8491 68.7905 26.1835C68.7905 25.5442 68.779 24.9986 68.7563 24.5469H69.2094C69.2618 24.5469 69.3713 24.5442 69.5381 24.5391C69.7049 24.5339 69.859 24.5312 70.0004 24.5312C70.8019 24.5312 71.2028 24.8069 71.2028 25.3587C71.2028 25.7961 70.974 26.1008 70.5166 26.2733V26.3128C70.6929 26.3619 70.8475 26.5005 70.9801 26.7277C71.1125 26.9551 71.2915 27.3719 71.5168 27.9781ZM70.5346 25.5535C70.5346 25.2039 70.311 25.029 69.8641 25.029C69.7 25.029 69.5549 25.0413 69.4293 25.0658C69.4486 25.3381 69.4581 25.6931 69.4581 26.1305C69.5542 26.1342 69.6354 26.1357 69.7017 26.1357C70.2569 26.1359 70.5346 25.9419 70.5346 25.5535ZM75.2714 26.1992C75.2714 26.7385 75.1073 27.1857 74.7789 27.5407C74.4504 27.8954 74.0444 28.073 73.5609 28.073C73.0998 28.073 72.7138 27.9101 72.4032 27.5841C72.0923 27.2583 71.9369 26.844 71.9369 26.3417C71.9369 25.8025 72.1011 25.3553 72.4295 25.0003C72.7577 24.6455 73.1637 24.4679 73.6475 24.4679C74.1086 24.4679 74.4943 24.6303 74.8052 24.9554C75.1161 25.2805 75.2714 25.6948 75.2714 26.1992ZM74.5487 26.2755C74.5487 25.9083 74.4553 25.6104 74.2685 25.382C74.0815 25.1536 73.8511 25.0395 73.577 25.0395C73.3219 25.0395 73.1054 25.1546 72.9274 25.3847C72.7494 25.6148 72.6599 25.9056 72.6599 26.2571C72.6599 26.6224 72.7538 26.9198 72.9415 27.1492C73.1293 27.3785 73.3593 27.4931 73.6319 27.4931C73.8867 27.4931 74.1034 27.3776 74.2815 27.1464C74.4595 26.9156 74.5487 26.6251 74.5487 26.2755ZM76.7525 27.9781H76.0112C76.0339 27.4335 76.0454 26.8354 76.0454 26.1835C76.0454 25.5422 76.0339 24.9966 76.0112 24.5469H76.7525C76.7298 24.9897 76.7184 25.5351 76.7184 26.1835C76.7184 26.8457 76.7298 27.444 76.7525 27.9781ZM80.5491 26.1438C80.5491 26.6428 80.3901 27.0785 80.0724 27.4509C79.7544 27.8236 79.3091 28.0095 78.7364 28.0095C78.4779 28.0095 78.1217 27.999 77.6676 27.9779C77.6903 27.4472 77.7018 26.8489 77.7018 26.1833C77.7018 25.544 77.6903 24.9983 77.6676 24.5467H78.126C78.2011 24.5467 78.3128 24.544 78.4613 24.5388C78.6096 24.5337 78.7066 24.531 78.752 24.531C79.3823 24.531 79.8393 24.6892 80.1233 25.0054C80.4072 25.3217 80.5491 25.701 80.5491 26.1438ZM79.8341 26.2571C79.8341 25.9198 79.7364 25.6357 79.5408 25.4043C79.3452 25.1735 79.0465 25.0579 78.6449 25.0579C78.5698 25.0579 78.4669 25.0658 78.3357 25.0817C78.353 25.4333 78.3618 25.8003 78.3618 26.1833C78.3618 26.6033 78.3706 27.0196 78.3879 27.4325C78.5 27.4552 78.614 27.4667 78.7283 27.4668C79.1038 27.4668 79.3818 27.3494 79.5625 27.1148C79.7432 26.8803 79.8341 26.5944 79.8341 26.2571ZM85.5858 27.9781H84.7475C84.7475 27.8621 84.668 27.5336 84.5088 26.9924H83.2986C83.1345 27.5247 83.0523 27.8532 83.0523 27.9781H82.2642C82.2642 27.9097 82.4681 27.3474 82.8758 26.2915C83.2835 25.2356 83.4873 24.6539 83.4873 24.5469H84.4775C84.4775 24.647 84.6624 25.2201 85.0315 26.2664C85.4007 27.3128 85.5858 27.8832 85.5858 27.9781ZM84.3756 26.489C84.0769 25.5824 83.9274 25.0923 83.9274 25.0184H83.8855C83.8855 25.0869 83.7311 25.577 83.4222 26.489H84.3756ZM88.6411 25.4453C88.6411 25.8653 88.486 26.1754 88.1761 26.3756C87.8661 26.5758 87.486 26.6761 87.0354 26.6761C86.9532 26.6761 86.8949 26.6744 86.8598 26.671C86.8598 27.0014 86.8693 27.4369 86.8886 27.9781H86.1524C86.1751 27.4705 86.1866 26.8721 86.1866 26.1835C86.1866 25.5511 86.1751 25.0054 86.1524 24.5469H86.6082C86.6728 24.5469 86.7966 24.5442 86.98 24.5391C87.1634 24.5339 87.3221 24.5312 87.4567 24.5312C87.7883 24.5312 88.0687 24.6068 88.2975 24.7579C88.5262 24.909 88.6411 25.1379 88.6411 25.4453ZM87.9654 25.5903C87.9654 25.2144 87.7174 25.0263 87.2215 25.0263C87.0973 25.0263 86.9664 25.0395 86.8286 25.0658C86.8479 25.398 86.8574 25.7738 86.8574 26.1938C86.901 26.1975 86.9518 26.199 87.0093 26.199C87.6467 26.1992 87.9654 25.9963 87.9654 25.5903ZM91.7827 25.4453C91.7827 25.8653 91.6276 26.1754 91.3179 26.3756C91.008 26.5758 90.6276 26.6761 90.177 26.6761C90.0948 26.6761 90.0366 26.6744 90.0014 26.671C90.0014 27.0014 90.011 27.4369 90.0302 27.9781H89.2941C89.3168 27.4705 89.3282 26.8721 89.3282 26.1835C89.3282 25.5511 89.3168 25.0054 89.2941 24.5469H89.7498C89.8144 24.5469 89.9383 24.5442 90.1217 24.5391C90.305 24.5339 90.4638 24.5312 90.5984 24.5312C90.93 24.5312 91.2104 24.6068 91.4391 24.7579C91.6678 24.909 91.7827 25.1379 91.7827 25.4453ZM91.107 25.5903C91.107 25.2144 90.859 25.0263 90.3631 25.0263C90.239 25.0263 90.108 25.0395 89.9703 25.0658C89.9895 25.398 89.999 25.7738 89.999 26.1938C90.0427 26.1975 90.0934 26.199 90.1509 26.199C90.7883 26.1992 91.107 25.9963 91.107 25.5903ZM96.9191 26.1992C96.9191 26.7385 96.755 27.1857 96.4266 27.5407C96.0982 27.8957 95.6921 28.073 95.2086 28.073C94.7475 28.073 94.3615 27.9101 94.0509 27.5841C93.7402 27.2583 93.5847 26.844 93.5847 26.3417C93.5847 25.8025 93.7488 25.3553 94.0772 25.0003C94.4057 24.6453 94.8117 24.4679 95.2952 24.4679C95.7563 24.4679 96.1423 24.6303 96.4529 24.9554C96.7636 25.2805 96.9191 25.6948 96.9191 26.1992ZM96.1962 26.2755C96.1962 25.9083 96.1027 25.6104 95.916 25.382C95.7292 25.1536 95.4985 25.0395 95.2245 25.0395C94.9694 25.0395 94.7529 25.1546 94.5749 25.3847C94.3969 25.6148 94.3076 25.9056 94.3076 26.2571C94.3076 26.6224 94.4015 26.9198 94.5893 27.1492C94.777 27.3785 95.007 27.4931 95.2793 27.4931C95.5344 27.4931 95.7509 27.3776 95.9289 27.1465C96.1072 26.9156 96.1962 26.6251 96.1962 26.2755ZM100.469 27.9781H99.8225C99.8225 27.906 99.5826 27.5257 99.1022 26.8371C98.5994 26.1114 98.3129 25.6153 98.2432 25.3482H98.2012C98.2449 25.7328 98.2668 26.0807 98.2668 26.3918C98.2668 26.8258 98.279 27.3548 98.3034 27.9784H97.659C97.6851 27.4337 97.6982 26.8356 97.6982 26.1838C97.6982 25.5425 97.6851 24.9969 97.659 24.5472H98.4368C98.4368 24.6404 98.6526 25.0121 99.0837 25.662C99.5431 26.3523 99.8067 26.8207 99.8747 27.0667H99.914C99.8721 26.6749 99.8511 26.3236 99.8511 26.0125C99.8511 25.5366 99.8389 25.0479 99.8145 24.5472H100.469C100.445 24.9829 100.433 25.5285 100.433 26.1838C100.433 26.844 100.445 27.4421 100.469 27.9781Z" fill="#032041"/>
<defs>
<filter id="filter0_d" x="0" y="0" width="168" height="88" filterUnits="userSpaceOnUse" color-interpolation-filters="sRGB">
<feFlood flood-opacity="0" result="BackgroundImageFix"/>
<feColorMatrix in="SourceAlpha" type="matrix" values="0 0 0 0 0 0 0 0 0 0 0 0 0 0 0 0 0 0 127 0"/>
<feOffset dy="6"/>
<feGaussianBlur stdDeviation="10"/>
<feColorMatrix type="matrix" values="0 0 0 0 0.214965 0 0 0 0 0.405498 0 0 0 0 0.629167 0 0 0 0.1 0"/>
<feBlend mode="normal" in2="BackgroundImageFix" result="effect1_dropShadow"/>
<feBlend mode="normal" in="SourceGraphic" in2="effect1_dropShadow" result="shape"/>
</filter>
<linearGradient id="paint0_linear" x1="35.9657" y1="24.1009" x2="35.9657" y2="51.8976" gradientUnits="userSpaceOnUse">
<stop stop-color="#257CB0"/>
<stop offset="0.286" stop-color="#4A93B5"/>
<stop offset="0.767" stop-color="#78BCBB"/>
<stop offset="1" stop-color="#89CFBD"/>
</linearGradient>
<linearGradient id="paint1_linear" x1="29.0002" y1="30.9996" x2="46.6734" y2="30.9996" gradientUnits="userSpaceOnUse">
<stop stop-color="#52C1AD"/>
<stop offset="1" stop-color="#DEE89A"/>
</linearGradient>
<linearGradient id="paint2_linear" x1="37.8364" y1="37.9996" x2="37.8364" y2="51.9989" gradientUnits="userSpaceOnUse">
<stop stop-color="#EC413D"/>
<stop offset="0.167" stop-color="#DA4452"/>
<stop offset="0.575" stop-color="#B0487A"/>
<stop offset="0.862" stop-color="#954A92"/>
<stop offset="1" stop-color="#8A4A9D"/>
</linearGradient>
<linearGradient id="paint3_linear" x1="48.0154" y1="34.2665" x2="48.0154" y2="41.7322" gradientUnits="userSpaceOnUse">
<stop stop-color="#F58879"/>
<stop offset="0.119" stop-color="#F69079"/>
<stop offset="0.713" stop-color="#FCB877"/>
<stop offset="1" stop-color="#FEC874"/>
</linearGradient>
</defs>
</svg>
