<svg viewBox="0 0 120 26" fill="none" xmlns="http://www.w3.org/2000/svg">
<path d="M52.9873 0H49.875C46.4335 0 43.6426 2.82989 43.6426 6.30185V15.7586H46.7627V12.6037H52.9952C56.4289 12.6037 59.2276 9.77381 59.2276 6.30185C59.2276 2.82989 56.421 0 52.9873 0ZM52.9873 9.45673H46.7549V6.30185C46.7549 4.56587 48.1503 3.15489 49.875 3.15489H52.9873C54.7042 3.15489 56.1075 4.56587 56.1075 6.30185C56.1075 8.03783 54.7042 9.45673 52.9873 9.45673Z" fill="#E71D28"/>
<path d="M21.8175 6.30185V15.7586H18.6973V6.30185C18.6973 4.56587 17.3019 3.15489 15.585 3.15489H12.4649V15.7586H9.35258V3.15489H6.23244C4.51558 3.15489 3.1123 4.56587 3.1123 6.30185V15.7586H0V6.30185C0 2.82989 2.79872 0 6.23244 0H15.585C19.0187 0 21.8175 2.82989 21.8175 6.30185Z" fill="#E71D28"/>
<path d="M84.1575 0H81.0374V15.7586H84.1575V0Z" fill="#E71D28"/>
<path d="M120 0V3.15489H113.768V15.7586H110.647V3.15489H104.415V0H120Z" fill="#E71D28"/>
<path d="M40.523 0V9.45673C40.523 12.9287 37.7243 15.7586 34.2906 15.7586H31.1704C27.7367 15.7586 24.938 12.9287 24.938 9.45673V0H28.0581V9.45673C28.0581 11.1927 29.4536 12.6116 31.1704 12.6116H34.2906C36.0074 12.6116 37.4107 11.2006 37.4107 9.45673V0H40.523Z" fill="#E71D28"/>
<path d="M102.855 6.30185V15.7586H99.7347V6.30185C99.7347 4.56587 98.3392 3.15489 96.6224 3.15489H93.5022C91.7854 3.15489 90.3821 4.56587 90.3821 6.30185V15.7586H87.2698V6.30185C87.2698 2.82989 90.0685 0 93.5022 0H96.6224C100.064 0 102.855 2.82989 102.855 6.30185Z" fill="#E71D28"/>
<path d="M71.6929 0H68.5728C65.1391 0 62.3403 2.82989 62.3403 6.30185V9.45673C62.3403 12.9287 65.1391 15.7586 68.5728 15.7586H71.6929C75.1266 15.7586 77.9254 12.9287 77.9254 9.45673V6.30185C77.9254 2.82989 75.1266 0 71.6929 0ZM71.6929 12.6037H68.5728C66.8559 12.6037 65.4605 11.1927 65.4605 9.44881V6.30185C65.4605 4.56587 66.8559 3.15489 68.5728 3.15489H71.6929C73.4098 3.15489 74.8131 4.56587 74.8131 6.30185V9.45673C74.8052 11.1927 73.4098 12.6037 71.6929 12.6037Z" fill="#E71D28"/>
<path d="M40.5223 18.9133C40.5223 22.8213 37.3786 25.9999 33.5059 25.9999H31.9458C28.0809 25.9999 24.9294 22.8213 24.9294 18.9133H28.0496C28.0496 21.0853 29.7978 22.853 31.9458 22.853H33.5059C35.6539 22.853 37.4022 21.0853 37.4022 18.9133H40.5223Z" fill="#E71D28"/>
</svg>
