<svg width="24" height="24" viewBox="0 0 24 24" fill="none" xmlns="http://www.w3.org/2000/svg">
<path d="M15 4C16.5373 4.38572 17.9224 5.21164 18.9781 6.37221C20.0338 7.53279 20.7122 8.97532 20.9268 10.5155C21.1413 12.0556 20.8821 13.6234 20.1823 15.0186C19.4826 16.4137 18.3741 17.5729 16.9984 18.3478V22" stroke="#040341" stroke-linecap="round" stroke-linejoin="round"/>
<path d="M13 15C14.6569 15 16 13.433 16 11.5C16 9.567 14.6569 8 13 8C11.3431 8 10 9.567 10 11.5C10 13.433 11.3431 15 13 15Z" stroke="#040341" stroke-linecap="round" stroke-linejoin="round"/>
<path d="M11 9V2.7C11 2.51435 11.0702 2.3363 11.1953 2.20503C11.3203 2.07375 11.4899 2 11.6667 2H14.3333C14.5101 2 14.6797 2.07375 14.8047 2.20503C14.9298 2.3363 15 2.51435 15 2.7V9" stroke="#040341" stroke-linecap="round" stroke-linejoin="round"/>
<path d="M4.87902 15L4.03012 14.7889C3.81868 14.7362 3.62305 14.6338 3.45971 14.4902C3.29636 14.3467 3.17008 14.1662 3.0915 13.9639C3.01291 13.7617 2.98433 13.5436 3.00815 13.3281C3.03197 13.1125 3.1075 12.9058 3.22838 12.7254L4.87902 10.2632V9.58647C4.87902 6.39068 7.48014 3.71188 11 3" stroke="#040341" stroke-linecap="round" stroke-linejoin="round"/>
<path d="M9 22V20L8.10529 20.1492C7.73766 20.2119 7.36099 20.1957 7 20.1018" stroke="#040341" stroke-linecap="round" stroke-linejoin="round"/>
<path d="M13 11C13 12.8565 12.2976 14.637 11.0474 15.9497C9.79714 17.2625 8.10144 18 6.33333 18H5" stroke="#040341" stroke-linecap="round" stroke-linejoin="round"/>
</svg>
