<svg  viewBox="0 0 20 20" fill="none" xmlns="http://www.w3.org/2000/svg">
<path d="M10.1588 8.75001L10.4088 6.71835C10.4161 6.66008 10.411 6.60093 10.3938 6.54478C10.3766 6.48863 10.3478 6.43674 10.3091 6.39252C10.2705 6.3483 10.223 6.31274 10.1696 6.28818C10.1163 6.26362 10.0584 6.25062 9.99964 6.25001H0.83297C0.77362 6.24955 0.714857 6.26178 0.660615 6.28587C0.606374 6.30997 0.557905 6.34537 0.518454 6.38971C0.479004 6.43405 0.449482 6.48631 0.431864 6.54299C0.414247 6.59967 0.408942 6.65945 0.416303 6.71835L1.9788 19.2183C1.99146 19.3197 2.04089 19.4128 2.1177 19.4801C2.19451 19.5474 2.29336 19.5841 2.39547 19.5833H5.83297" stroke="#032041" stroke-linecap="round" stroke-linejoin="round"/>
<path d="M18.7497 14.5834H7.08301V13.7501C7.08301 12.866 7.4342 12.0182 8.05932 11.3931C8.68444 10.7679 9.53229 10.4167 10.4163 10.4167H15.4163C16.3004 10.4167 17.1482 10.7679 17.7734 11.3931C18.3985 12.0182 18.7497 12.866 18.7497 13.7501V14.5834Z" stroke="#032041" stroke-linecap="round" stroke-linejoin="round"/>
<path d="M19.5833 15.8335C19.5833 16.165 19.4516 16.483 19.2172 16.7174C18.9828 16.9518 18.6649 17.0835 18.3333 17.0835H7.5C7.16848 17.0835 6.85054 16.9518 6.61612 16.7174C6.3817 16.483 6.25 16.165 6.25 15.8335C6.25 15.502 6.3817 15.184 6.61612 14.9496C6.85054 14.7152 7.16848 14.5835 7.5 14.5835H18.3333C18.6649 14.5835 18.9828 14.7152 19.2172 14.9496C19.4516 15.184 19.5833 15.502 19.5833 15.8335Z" stroke="#032041" stroke-linecap="round" stroke-linejoin="round"/>
<path d="M18.7497 17.9168C18.7497 18.3589 18.5741 18.7828 18.2615 19.0953C17.949 19.4079 17.525 19.5835 17.083 19.5835H8.74967C8.30765 19.5835 7.88372 19.4079 7.57116 19.0953C7.2586 18.7828 7.08301 18.3589 7.08301 17.9168V17.0835H18.7497V17.9168Z" stroke="#032041" stroke-linecap="round" stroke-linejoin="round"/>
<path d="M4.16699 15.8334L5.73616 1.16089C5.74849 1.04632 5.78445 0.935553 5.84177 0.835585C5.89909 0.735618 5.97651 0.648624 6.06916 0.580099C6.1618 0.511575 6.26765 0.46301 6.38002 0.437471C6.49239 0.411933 6.60883 0.409977 6.72199 0.431726L10.417 1.13923" stroke="#032041" stroke-linecap="round" stroke-linejoin="round"/>
</svg>
